<?xml version="1.0" encoding="utf-8"?>
<!-- Generator: Adobe Illustrator 22.0.1, SVG Export Plug-In . SVG Version: 6.00 Build 0)  -->
<svg version="1.1" id="圖層_1" xmlns="http://www.w3.org/2000/svg" xmlns:xlink="http://www.w3.org/1999/xlink" x="0px" y="0px"
	 viewBox="0 0 512 512" style="enable-background:new 0 0 512 512;" xml:space="preserve">
<style type="text/css">
	.st0{display:none;}
	.st1{display:inline;opacity:0;fill:#047DE7;}
	.st2{display:inline;fill:#047DE7;}
	.st3{display:inline;opacity:0.1;fill:#047DE7;}
	.st4{display:inline;opacity:0.2;fill:#047DE7;}
	.st5{display:inline;opacity:0.3;fill:#047DE7;}
	.st6{display:inline;opacity:0.4;fill:#047DE7;}
	.st7{display:inline;opacity:0.5;fill:#047DE7;}
	.st8{display:inline;opacity:0.58;fill:#047DE7;}
	.st9{display:inline;opacity:0.65;fill:#047DE7;}
	.st10{display:inline;opacity:0.72;fill:#047DE7;}
	.st11{display:inline;opacity:0.8;fill:#047DE7;}
	.st12{display:inline;opacity:0.88;fill:#047DE7;}
	.st13{opacity:0;fill:#047DE7;}
	.st14{fill:#047DE7;}
	.st15{opacity:0.1;fill:#047DE7;}
	.st16{opacity:0.2;fill:#047DE7;}
	.st17{opacity:0.3;fill:#047DE7;}
	.st18{opacity:0.4;fill:#047DE7;}
	.st19{opacity:0.5;fill:#047DE7;}
	.st20{opacity:0.58;fill:#047DE7;}
	.st21{opacity:0.65;fill:#047DE7;}
	.st22{opacity:0.72;fill:#047DE7;}
	.st23{opacity:0.8;fill:#047DE7;}
	.st24{opacity:0.88;fill:#047DE7;}
</style>
<g class="st0">
	<path class="st1" d="M355.5,120.9c-6.8,0-13.6-1.8-19.5-5.3c-9.1-5.2-15.5-13.7-18.2-23.8c-2.7-10.1-1.3-20.6,3.9-29.7
		c7-12.1,20-19.6,33.9-19.6c6.8,0,13.6,1.8,19.5,5.3c18.7,10.8,25.1,34.8,14.3,53.5C382.5,113.4,369.5,120.9,355.5,120.9z"/>
	<path class="st2" d="M253.3,93.5c-21.6,0-39.2-17.6-39.2-39.2c0-21.6,17.6-39.2,39.2-39.2c21.6,0,39.1,17.6,39.1,39.2
		C292.5,75.9,274.9,93.5,253.3,93.5z"/>
	<path class="st3" d="M430.5,195.7c-14,0-27-7.5-33.9-19.6c-5.2-9.1-6.6-19.6-3.9-29.7c2.7-10.1,9.2-18.5,18.2-23.8
		c6-3.4,12.7-5.3,19.5-5.3c14,0,27,7.5,33.9,19.6c5.2,9.1,6.6,19.6,3.9,29.7c-2.7,10.1-9.2,18.5-18.2,23.8
		C444.1,193.9,437.3,195.7,430.5,195.7z"/>
	<path class="st4" d="M457.8,298c-21.6,0-39.1-17.6-39.1-39.2c0-21.6,17.5-39.1,39.1-39.1c21.6,0,39.1,17.6,39.2,39.1
		C497,280.4,479.4,298,457.8,298L457.8,298z"/>
	<path class="st5" d="M430.4,400.3c-6.8,0-13.6-1.8-19.5-5.3c-9.1-5.2-15.5-13.7-18.2-23.8c-2.7-10.1-1.3-20.7,3.9-29.7
		c7-12.1,20-19.6,33.9-19.6c6.8,0,13.6,1.8,19.5,5.3c18.7,10.8,25.1,34.8,14.3,53.5C457.4,392.8,444.4,400.3,430.4,400.3z"/>
	<path class="st6" d="M355.6,475.1c-14,0-27-7.5-34-19.6c-10.8-18.7-4.4-42.7,14.3-53.5c5.9-3.4,12.7-5.3,19.5-5.3
		c14,0,27,7.5,34,19.6c5.2,9.1,6.6,19.6,3.9,29.7c-2.7,10.1-9.2,18.5-18.2,23.8C369.2,473.3,362.4,475.1,355.6,475.1z"/>
	<path class="st7" d="M253.3,502.5c-21.6,0-39.2-17.6-39.2-39.2c0-10.5,4.1-20.3,11.5-27.7c7.4-7.4,17.2-11.5,27.7-11.5
		c21.6,0,39.1,17.6,39.1,39.2C292.4,485,274.9,502.5,253.3,502.5L253.3,502.5z"/>
	<path class="st8" d="M151,475.1c-6.8,0-13.6-1.8-19.5-5.3c-18.7-10.8-25.1-34.8-14.3-53.5c7-12.1,20-19.6,33.9-19.6
		c6.8,0,13.6,1.8,19.5,5.3c18.7,10.8,25.1,34.8,14.3,53.5C178,467.6,165,475.1,151,475.1z"/>
	<path class="st9" d="M76.2,400.3c-14,0-27-7.5-34-19.6C31.5,362,37.9,338,56.6,327.2c6-3.4,12.7-5.3,19.5-5.3
		c14,0,27,7.5,33.9,19.6c10.8,18.7,4.4,42.7-14.3,53.5C89.8,398.5,83,400.3,76.2,400.3z"/>
	<path class="st10" d="M48.8,298c-21.6,0-39.2-17.6-39.2-39.2c0-21.6,17.6-39.2,39.2-39.2c10.5,0,20.3,4.1,27.7,11.5
		c7.4,7.4,11.5,17.2,11.5,27.7C87.9,280.4,70.3,298,48.8,298L48.8,298z"/>
	<path class="st11" d="M76.1,195.7c-6.8,0-13.6-1.8-19.5-5.3c-18.7-10.8-25.1-34.8-14.3-53.5c7-12.1,20-19.6,33.9-19.6
		c6.8,0,13.6,1.8,19.5,5.3c9.1,5.2,15.5,13.7,18.2,23.8c2.7,10.1,1.3,20.7-3.9,29.7C103.1,188.2,90.1,195.7,76.1,195.7z"/>
	<path class="st12" d="M151.1,120.9c-14,0-27-7.5-33.9-19.6c-10.8-18.7-4.4-42.7,14.3-53.5c6-3.4,12.7-5.3,19.5-5.3
		c14,0,27,7.5,33.9,19.6c5.2,9.1,6.6,19.6,3.9,29.7c-2.7,10.1-9.2,18.5-18.2,23.8C164.7,119,157.9,120.9,151.1,120.9z"/>
</g>
<g class="st0">
	<path class="st1" d="M410.9,191.5c-5.9-3.4-10.9-8.4-14.3-14.3c-5.2-9.1-6.6-19.6-3.9-29.7c2.7-10.1,9.2-18.5,18.3-23.8
		c12.1-7,27.1-7,39.2,0c5.9,3.4,10.9,8.4,14.3,14.3c10.8,18.7,4.3,42.7-14.4,53.5C438,198.5,423,198.5,410.9,191.5z"/>
	<path class="st2" d="M336.1,116.7c-18.7-10.8-25.1-34.8-14.3-53.5c10.8-18.7,34.8-25.1,53.5-14.3c18.7,10.8,25.1,34.8,14.3,53.5
		C378.8,121,354.8,127.5,336.1,116.7z"/>
	<path class="st3" d="M438.3,293.9c-12.1-7-19.6-20-19.6-33.9c0-10.5,4.1-20.3,11.5-27.7c7.4-7.4,17.2-11.5,27.7-11.5
		c6.9,0,13.6,1.8,19.5,5.2c12.1,7,19.6,20,19.6,33.9c0,10.5-4.1,20.3-11.5,27.7c-7.4,7.4-17.2,11.5-27.7,11.5
		C451,299.1,444.2,297.3,438.3,293.9z"/>
	<path class="st4" d="M410.8,396.1c-18.7-10.8-25.1-34.8-14.3-53.5c10.8-18.7,34.8-25.1,53.5-14.3c18.7,10.8,25.1,34.8,14.3,53.5
		C453.5,400.5,429.5,406.9,410.8,396.1L410.8,396.1z"/>
	<path class="st5" d="M335.9,470.9c-5.9-3.4-10.8-8.4-14.3-14.3c-5.2-9.1-6.6-19.6-3.9-29.7c2.7-10.1,9.2-18.5,18.3-23.8
		c12.1-7,27.1-7,39.2,0c5.9,3.4,10.9,8.4,14.3,14.3c10.8,18.7,4.4,42.7-14.4,53.5C363,477.9,347.9,477.9,335.9,470.9z"/>
	<path class="st6" d="M233.6,498.3c-12.1-7-19.6-20-19.6-33.9c0-21.6,17.6-39.1,39.2-39.1c6.9,0,13.6,1.8,19.5,5.2
		c12.1,7,19.6,20,19.6,33.9c0,10.5-4.1,20.3-11.5,27.7c-7.4,7.4-17.2,11.5-27.7,11.5C246.3,503.5,239.6,501.7,233.6,498.3z"/>
	<path class="st7" d="M131.4,470.8C112.7,460,106.2,436,117,417.3c5.2-9.1,13.7-15.5,23.8-18.2c10.1-2.7,20.7-1.3,29.7,3.9
		c18.7,10.8,25.1,34.8,14.3,53.5C174,475.2,150,481.6,131.4,470.8L131.4,470.8z"/>
	<path class="st8" d="M56.5,395.9c-5.9-3.4-10.8-8.4-14.3-14.3c-10.8-18.7-4.3-42.7,14.4-53.5c12.1-7,27.1-7,39.2,0
		c5.9,3.4,10.9,8.4,14.3,14.3c10.8,18.7,4.3,42.7-14.4,53.5C83.6,402.9,68.6,402.9,56.5,395.9z"/>
	<path class="st9" d="M29.2,293.7c-12.1-7-19.6-20-19.6-33.9c0-21.6,17.6-39.1,39.2-39.1c6.9,0,13.6,1.8,19.5,5.2
		c12.1,7,19.6,20,19.6,33.9c0,21.6-17.6,39.1-39.2,39.1C41.9,298.9,35.1,297.1,29.2,293.7z"/>
	<path class="st10" d="M56.6,191.4c-18.7-10.8-25.1-34.8-14.3-53.5c10.8-18.7,34.8-25.1,53.5-14.3c9.1,5.2,15.5,13.7,18.2,23.8
		c2.7,10.1,1.3,20.7-3.9,29.7C99.3,195.8,75.3,202.2,56.6,191.4L56.6,191.4z"/>
	<path class="st11" d="M131.5,116.5c-5.9-3.4-10.8-8.4-14.3-14.3c-10.8-18.7-4.3-42.7,14.4-53.5c12.1-7,27.1-7,39.2,0
		c5.9,3.4,10.8,8.4,14.3,14.3c5.2,9.1,6.6,19.6,3.9,29.7c-2.7,10.1-9.2,18.5-18.3,23.8C158.6,123.5,143.6,123.5,131.5,116.5z"/>
	<path class="st12" d="M233.8,89.2c-12.1-7-19.6-20-19.6-33.9c0-21.6,17.6-39.1,39.2-39.1c6.9,0,13.6,1.8,19.5,5.2
		c12.1,7,19.6,20,19.6,33.9c0,10.5-4.1,20.3-11.5,27.7c-7.4,7.4-17.2,11.5-27.7,11.5C246.5,94.5,239.8,92.6,233.8,89.2z"/>
</g>
<g class="st0">
	<path class="st1" d="M423.9,279.5c-3.4-5.9-5.2-12.7-5.2-19.5c0-10.5,4.1-20.3,11.5-27.7c7.4-7.4,17.2-11.5,27.7-11.4
		c13.9,0,26.9,7.5,33.9,19.6c3.4,5.9,5.2,12.7,5.2,19.5c0,21.6-17.6,39.1-39.2,39.1C443.9,299.1,430.9,291.6,423.9,279.5z"/>
	<path class="st2" d="M396.6,177.3c-10.8-18.7-4.3-42.7,14.4-53.5c18.7-10.8,42.7-4.3,53.5,14.4c10.8,18.7,4.3,42.7-14.4,53.5
		C431.4,202.4,407.4,196,396.6,177.3z"/>
	<path class="st3" d="M396.4,381.8c-7-12.1-7-27.1,0-39.2c5.2-9.1,13.7-15.5,23.8-18.2c10.1-2.7,20.7-1.3,29.7,3.9
		c6,3.5,10.9,8.4,14.3,14.3c7,12.1,7,27.1,0,39.2c-5.2,9.1-13.7,15.5-23.8,18.2c-10.1,2.7-20.7,1.3-29.7-3.9
		C404.8,392.7,399.9,387.8,396.4,381.8z"/>
	<path class="st4" d="M321.5,456.6c-10.8-18.7-4.3-42.7,14.4-53.4c18.7-10.8,42.7-4.3,53.5,14.4c10.8,18.7,4.3,42.7-14.4,53.5
		C356.3,481.8,332.3,475.3,321.5,456.6L321.5,456.6z"/>
	<path class="st5" d="M219.2,483.9c-3.4-5.9-5.2-12.7-5.2-19.6c0-10.5,4.1-20.3,11.5-27.7c7.4-7.4,17.2-11.5,27.7-11.4
		c13.9,0,26.9,7.5,33.9,19.6c3.4,5.9,5.2,12.7,5.2,19.5c0,21.6-17.6,39.1-39.2,39.1C239.2,503.5,226.2,496,219.2,483.9z"/>
	<path class="st6" d="M117,456.5c-7-12.1-7-27.1,0-39.2c10.8-18.7,34.8-25.1,53.5-14.3c5.9,3.4,10.9,8.4,14.3,14.3
		c7,12.1,7,27.1,0,39.2c-5.2,9.1-13.7,15.5-23.8,18.2c-10.1,2.7-20.7,1.3-29.7-3.9C125.3,467.4,120.4,462.4,117,456.5z"/>
	<path class="st7" d="M42.2,381.5c-10.8-18.7-4.3-42.7,14.4-53.5c9.1-5.2,19.6-6.6,29.7-3.9c10.1,2.7,18.5,9.2,23.8,18.3
		c10.8,18.7,4.3,42.7-14.4,53.5C76.9,406.7,52.9,400.2,42.2,381.5L42.2,381.5z"/>
	<path class="st8" d="M14.8,279.2c-3.4-5.9-5.2-12.7-5.2-19.5c0-21.6,17.6-39.1,39.2-39.1c14,0,26.9,7.5,33.9,19.6
		c3.4,5.9,5.2,12.7,5.2,19.6c0,21.6-17.6,39.1-39.2,39.1C34.8,298.8,21.8,291.3,14.8,279.2z"/>
	<path class="st9" d="M42.3,177c-7-12.1-7-27.1,0-39.2c10.8-18.7,34.8-25.1,53.5-14.3c5.9,3.4,10.9,8.4,14.3,14.3
		c7,12.1,7,27.1,0,39.2c-10.8,18.7-34.8,25.1-53.5,14.3C50.7,187.9,45.7,182.9,42.3,177z"/>
	<path class="st10" d="M117.2,102.2c-10.8-18.7-4.3-42.7,14.4-53.5c18.7-10.8,42.7-4.3,53.5,14.4c5.2,9.1,6.6,19.6,3.9,29.7
		c-2.7,10.1-9.2,18.5-18.3,23.8C152,127.3,128,120.9,117.2,102.2L117.2,102.2z"/>
	<path class="st11" d="M219.5,74.8c-3.4-5.9-5.2-12.7-5.2-19.5c0-21.6,17.6-39.1,39.2-39.1c14,0,26.9,7.5,33.9,19.6
		c3.4,5.9,5.2,12.7,5.2,19.5c0,10.5-4.1,20.3-11.5,27.7c-7.4,7.4-17.2,11.5-27.7,11.4C239.5,94.4,226.5,86.9,219.5,74.8z"/>
	<path class="st12" d="M321.8,102.4c-7-12.1-7-27.1,0-39.2c10.8-18.7,34.8-25.1,53.5-14.3c6,3.4,10.9,8.4,14.3,14.3
		c7,12.1,7,27.1,0,39.2c-5.2,9.1-13.7,15.5-23.8,18.2c-10.1,2.7-20.7,1.3-29.7-3.9C330.2,113.2,325.2,108.3,321.8,102.4z"/>
</g>
<g class="st0">
	<path class="st1" d="M391,362.4c0-6.8,1.8-13.6,5.3-19.5c5.2-9,13.7-15.5,23.8-18.2c10.1-2.7,20.7-1.3,29.7,4
		c12.1,7,19.5,20,19.5,34c0,6.8-1.8,13.6-5.3,19.5c-10.8,18.7-34.8,25-53.5,14.2C398.5,389.4,391,376.4,391,362.4z"/>
	<path class="st2" d="M418.7,260.2c0.1-21.6,17.7-39.1,39.2-39.1c21.6,0.1,39.1,17.7,39.1,39.2c-0.1,21.6-17.7,39.1-39.2,39.1
		C436.2,299.4,418.6,281.8,418.7,260.2z"/>
	<path class="st3" d="M316,437.2c0-14,7.6-27,19.7-33.9c9.1-5.2,19.6-6.6,29.7-3.8c10.1,2.7,18.5,9.2,23.7,18.3
		c3.4,6,5.2,12.7,5.2,19.5c0,14-7.6,27-19.7,33.9c-9.1,5.2-19.6,6.6-29.7,3.9c-10.1-2.7-18.5-9.2-23.7-18.3
		C317.8,450.8,316,444,316,437.2z"/>
	<path class="st4" d="M213.7,464.3c0.1-21.6,17.7-39.1,39.2-39c21.6,0.1,39.1,17.6,39.1,39.2c-0.1,21.6-17.7,39.1-39.2,39.1
		C231.1,503.5,213.6,485.9,213.7,464.3L213.7,464.3z"/>
	<path class="st5" d="M111.5,436.6c0-6.8,1.8-13.6,5.3-19.5c5.2-9,13.7-15.5,23.8-18.2c10.1-2.7,20.7-1.3,29.7,4
		c12.1,7,19.5,20,19.5,34c0,6.8-1.9,13.6-5.3,19.5c-10.8,18.7-34.8,25.1-53.5,14.2C118.9,463.6,111.4,450.6,111.5,436.6z"/>
	<path class="st6" d="M36.8,361.7c0-14,7.6-27,19.7-33.9c18.7-10.8,42.7-4.3,53.4,14.5c3.4,6,5.2,12.7,5.2,19.5
		c0,14-7.6,27-19.7,33.9c-9.1,5.2-19.6,6.6-29.7,3.8c-10.1-2.7-18.5-9.2-23.7-18.3C38.5,375.2,36.7,368.5,36.8,361.7z"/>
	<path class="st7" d="M9.6,259.3c0.1-21.6,17.7-39.1,39.2-39.1c10.5,0,20.3,4.1,27.7,11.5c7.4,7.4,11.4,17.3,11.4,27.7
		c-0.1,21.6-17.7,39.1-39.2,39C27.1,298.5,9.6,280.9,9.6,259.3L9.6,259.3z"/>
	<path class="st8" d="M37.2,157c0-6.8,1.8-13.6,5.3-19.5c10.8-18.7,34.9-25,53.5-14.2c12.1,7,19.5,20,19.5,34
		c0,6.8-1.8,13.6-5.3,19.5c-10.8,18.7-34.8,25-53.5,14.2C44.7,184,37.2,171,37.2,157z"/>
	<path class="st9" d="M112.3,82.4c0-14,7.6-27,19.7-33.9c18.7-10.7,42.7-4.3,53.5,14.5c3.4,6,5.2,12.7,5.2,19.6
		c0,14-7.6,27-19.7,33.9c-18.7,10.7-42.7,4.3-53.4-14.5C114.1,96,112.3,89.2,112.3,82.4z"/>
	<path class="st10" d="M214.6,55.2c0.1-21.6,17.7-39.1,39.2-39.1c21.6,0.1,39.1,17.7,39.1,39.2c0,10.5-4.1,20.3-11.5,27.7
		c-7.4,7.4-17.3,11.4-27.7,11.4C232.1,94.4,214.6,76.8,214.6,55.2L214.6,55.2z"/>
	<path class="st11" d="M316.8,82.8c0-6.8,1.8-13.6,5.3-19.5c10.8-18.7,34.8-25,53.5-14.2c12.1,7,19.5,20,19.5,34
		c0,6.8-1.8,13.6-5.3,19.5c-5.2,9-13.7,15.5-23.8,18.2c-10.1,2.7-20.7,1.3-29.7-4C324.3,109.8,316.8,96.8,316.8,82.8z"/>
	<path class="st12" d="M391.5,157.9c0-14,7.6-27,19.7-33.9c18.7-10.8,42.7-4.3,53.4,14.5c3.4,6,5.2,12.7,5.2,19.6
		c0,14-7.6,27-19.7,33.9c-9.1,5.2-19.6,6.6-29.7,3.8c-10.1-2.7-18.5-9.2-23.7-18.3C393.3,171.5,391.5,164.8,391.5,157.9z"/>
</g>
<g>
	<path class="st13" d="M321.4,417.5c3.4-5.9,8.4-10.8,14.3-14.3c9.1-5.2,19.6-6.6,29.7-3.9c10.1,2.7,18.5,9.2,23.7,18.3
		c7,12.1,6.9,27.1-0.1,39.2c-3.4,5.9-8.4,10.8-14.3,14.3c-18.7,10.8-42.7,4.3-53.5-14.4C314.4,444.6,314.4,429.6,321.4,417.5z"/>
	<path class="st14" d="M396.4,342.8c10.8-18.7,34.8-25.1,53.5-14.2c18.7,10.8,25.1,34.8,14.2,53.5c-10.8,18.7-34.8,25.1-53.5,14.2
		C392,385.5,385.6,361.5,396.4,342.8z"/>
	<path class="st15" d="M219,444.8c7-12.1,20-19.6,34-19.5c10.5,0,20.3,4.1,27.7,11.5c7.4,7.4,11.4,17.2,11.4,27.7
		c0,6.9-1.8,13.6-5.3,19.5c-7,12.1-20,19.6-34,19.5c-10.5,0-20.3-4.1-27.7-11.5c-7.4-7.4-11.4-17.3-11.4-27.7
		C213.8,457.4,215.6,450.7,219,444.8z"/>
	<path class="st16" d="M116.9,417.2c10.8-18.7,34.8-25,53.5-14.2c18.7,10.8,25.1,34.8,14.2,53.5c-10.8,18.7-34.8,25.1-53.5,14.2
		C112.4,459.9,106,435.8,116.9,417.2L116.9,417.2z"/>
	<path class="st17" d="M42.1,342.1c3.4-5.9,8.4-10.8,14.3-14.3c9.1-5.2,19.6-6.6,29.7-3.9c10.1,2.7,18.5,9.2,23.7,18.3
		c7,12.1,6.9,27.1-0.1,39.2c-3.4,5.9-8.4,10.8-14.3,14.3C76.8,406.5,52.8,400,42,381.3C35.1,369.2,35.1,354.2,42.1,342.1z"/>
	<path class="st18" d="M14.9,239.9c7-12.1,20-19.6,34-19.6c21.6,0,39.1,17.6,39.1,39.2c0,6.9-1.8,13.6-5.2,19.5
		c-7,12.1-20,19.6-34,19.6c-10.5,0-20.3-4.1-27.7-11.5c-7.4-7.4-11.4-17.3-11.4-27.7C9.6,252.6,11.4,245.8,14.9,239.9z"/>
	<path class="st19" d="M42.5,137.6C53.3,119,77.3,112.6,96,123.4c9,5.2,15.5,13.7,18.2,23.8c2.7,10.1,1.3,20.7-4,29.7
		c-10.8,18.7-34.8,25.1-53.5,14.2C38,180.3,31.6,156.3,42.5,137.6L42.5,137.6z"/>
	<path class="st20" d="M117.5,62.9c3.4-5.9,8.4-10.8,14.3-14.3c18.7-10.8,42.7-4.3,53.5,14.4c7,12.1,6.9,27.1-0.1,39.2
		c-3.4,5.9-8.4,10.8-14.3,14.3c-18.7,10.8-42.7,4.3-53.5-14.4C110.4,90,110.5,74.9,117.5,62.9z"/>
	<path class="st21" d="M219.8,35.7c7-12.1,20-19.6,34-19.6c21.6,0,39.1,17.6,39.1,39.2c0,6.9-1.8,13.6-5.3,19.5
		c-7,12.1-20,19.6-34,19.5c-21.6,0-39.1-17.6-39.1-39.2C214.5,48.4,216.3,41.6,219.8,35.7z"/>
	<path class="st22" d="M322,63.3c10.8-18.7,34.8-25.1,53.5-14.2c18.7,10.8,25.1,34.8,14.2,53.5c-5.2,9.1-13.7,15.5-23.8,18.2
		c-10.1,2.7-20.7,1.3-29.7-4C317.6,105.9,311.2,81.9,322,63.3L322,63.3z"/>
	<path class="st23" d="M396.8,138.2c3.4-5.9,8.4-10.8,14.3-14.3c18.7-10.8,42.7-4.3,53.5,14.4c7,12.1,6.9,27.1-0.1,39.2
		c-3.4,5.9-8.4,10.8-14.3,14.3c-9.1,5.2-19.6,6.6-29.7,3.9c-10.1-2.7-18.5-9.2-23.7-18.3C389.7,165.3,389.8,150.3,396.8,138.2z"/>
	<path class="st24" d="M423.9,240.6c7-12.1,20-19.6,34-19.5c21.6,0,39.1,17.6,39.1,39.2c0,6.9-1.8,13.6-5.2,19.5
		c-7,12.1-20,19.6-34,19.5c-10.5,0-20.3-4.1-27.7-11.5c-7.4-7.4-11.4-17.2-11.4-27.7C418.7,253.3,420.5,246.5,423.9,240.6z"/>
</g>
<g class="st0">
	<path class="st1" d="M234,430.5c5.9-3.4,12.7-5.2,19.5-5.2c10.5,0,20.3,4,27.7,11.4c7.4,7.4,11.5,17.2,11.5,27.7
		c0,13.9-7.5,27-19.6,34c-5.9,3.4-12.7,5.2-19.5,5.2c-21.6,0-39.2-17.5-39.2-39.1C214.4,450.5,221.9,437.5,234,430.5z"/>
	<path class="st2" d="M336.2,403c18.7-10.8,42.7-4.4,53.5,14.3c10.8,18.7,4.4,42.7-14.3,53.5c-18.7,10.8-42.7,4.4-53.5-14.3
		C311.1,437.8,317.5,413.8,336.2,403z"/>
	<path class="st3" d="M131.6,403.2c12.1-7,27.1-7,39.2-0.1c9.1,5.2,15.5,13.7,18.3,23.8c2.7,10.1,1.3,20.6-3.9,29.7
		c-3.4,6-8.4,10.9-14.3,14.3c-12.1,7-27.1,7-39.2,0.1c-9.1-5.2-15.6-13.7-18.3-23.7c-2.7-10.1-1.3-20.7,3.9-29.7
		C120.8,411.6,125.7,406.7,131.6,403.2z"/>
	<path class="st4" d="M56.7,328.4c18.7-10.8,42.7-4.4,53.5,14.3c10.8,18.7,4.4,42.7-14.3,53.5C77.2,407,53.2,400.6,42.4,382
		C31.6,363.3,38,339.3,56.7,328.4L56.7,328.4z"/>
	<path class="st5" d="M29.2,226.2c5.9-3.4,12.7-5.2,19.5-5.2c10.5,0,20.3,4,27.7,11.4c7.4,7.4,11.5,17.2,11.5,27.7
		c0,13.9-7.5,27-19.6,34c-5.9,3.4-12.7,5.2-19.5,5.2c-21.6,0-39.2-17.5-39.2-39.1C9.6,246.2,17.1,233.2,29.2,226.2z"/>
	<path class="st6" d="M56.4,123.9c12.1-7,27.1-7,39.2-0.1c18.7,10.8,25.2,34.8,14.4,53.5c-3.4,6-8.4,10.9-14.3,14.3
		c-12.1,7-27.1,7-39.2,0.1c-9.1-5.2-15.6-13.6-18.3-23.8c-2.7-10.1-1.3-20.7,3.9-29.7C45.5,132.3,50.5,127.4,56.4,123.9z"/>
	<path class="st7" d="M131.2,48.9c18.7-10.8,42.7-4.4,53.5,14.3c5.2,9,6.6,19.6,3.9,29.7c-2.7,10.1-9.2,18.6-18.2,23.8
		c-18.7,10.8-42.7,4.4-53.5-14.3C106.1,83.8,112.5,59.8,131.2,48.9L131.2,48.9z"/>
	<path class="st8" d="M233.5,21.4c5.9-3.4,12.7-5.2,19.5-5.2c21.6,0,39.2,17.5,39.2,39.1c0,14-7.5,27-19.6,34
		c-5.9,3.4-12.7,5.2-19.5,5.2c-21.6,0-39.2-17.5-39.2-39.1C213.9,41.4,221.4,28.4,233.5,21.4z"/>
	<path class="st9" d="M335.7,48.7c12.1-7,27.1-7,39.2-0.1c18.7,10.8,25.2,34.8,14.4,53.5c-3.4,6-8.4,10.9-14.3,14.3
		c-12.1,7-27.1,7-39.2,0.1c-18.7-10.8-25.2-34.8-14.4-53.5C324.9,57.1,329.8,52.1,335.7,48.7z"/>
	<path class="st10" d="M410.7,123.5c18.7-10.8,42.7-4.4,53.5,14.3c10.8,18.7,4.4,42.7-14.3,53.5c-9.1,5.2-19.6,6.6-29.7,3.9
		c-10.1-2.7-18.6-9.2-23.8-18.2C385.6,158.3,392,134.3,410.7,123.5L410.7,123.5z"/>
	<path class="st11" d="M438.3,225.7c5.9-3.4,12.7-5.2,19.5-5.2c21.6,0,39.2,17.5,39.2,39.1c0,14-7.5,27-19.6,34
		c-5.9,3.4-12.7,5.2-19.5,5.2c-10.5,0-20.3-4-27.7-11.4c-7.4-7.4-11.5-17.2-11.5-27.7C418.7,245.7,426.2,232.7,438.3,225.7z"/>
	<path class="st12" d="M410.9,328c12.1-7,27.1-7,39.2-0.1c18.7,10.8,25.2,34.8,14.4,53.5c-3.4,6-8.4,10.9-14.3,14.3
		c-12.1,7-27.1,7-39.2,0.1c-9.1-5.2-15.6-13.6-18.3-23.7c-2.7-10.1-1.3-20.7,3.9-29.7C400.1,336.4,405,331.5,410.9,328z"/>
</g>
<g class="st0">
	<path class="st1" d="M151.3,398c6.8,0,13.6,1.8,19.5,5.2c9.1,5.2,15.6,13.6,18.3,23.7c2.7,10.1,1.4,20.6-3.9,29.7
		c-6.9,12.1-19.9,19.6-33.9,19.6c-6.8,0-13.6-1.8-19.5-5.2c-18.7-10.8-25.2-34.7-14.4-53.4C124.4,405.6,137.3,398,151.3,398z"/>
	<path class="st2" d="M253.6,425.2c21.6,0,39.2,17.5,39.2,39.1c0,21.6-17.5,39.2-39.1,39.2c-21.6,0-39.2-17.5-39.2-39.1
		C214.5,442.9,232,425.3,253.6,425.2z"/>
	<path class="st3" d="M76.2,323.3c14,0,27,7.5,34,19.5c5.3,9.1,6.6,19.6,4,29.7c-2.7,10.1-9.1,18.6-18.2,23.8
		c-6,3.4-12.7,5.3-19.5,5.3c-14,0-27-7.5-34-19.5c-5.3-9-6.7-19.6-4-29.7c2.7-10.1,9.2-18.6,18.2-23.8
		C62.7,325.1,69.4,323.3,76.2,323.3z"/>
	<path class="st4" d="M48.7,221.1c21.6,0,39.2,17.5,39.2,39.1c0,21.6-17.5,39.2-39.1,39.2c-21.6,0-39.2-17.5-39.2-39.1
		C9.6,238.7,27.1,221.1,48.7,221.1L48.7,221.1z"/>
	<path class="st5" d="M76,118.7c6.8,0,13.6,1.8,19.5,5.2c9.1,5.2,15.6,13.6,18.3,23.7c2.7,10.1,1.4,20.7-3.9,29.7
		C103,189.5,90,197,76,197.1c-6.8,0-13.6-1.8-19.5-5.2c-18.7-10.8-25.2-34.7-14.4-53.5C49,126.3,62,118.8,76,118.7z"/>
	<path class="st6" d="M150.6,43.7c14,0,27,7.5,34,19.5c10.8,18.7,4.4,42.7-14.2,53.5c-5.9,3.4-12.7,5.3-19.5,5.3
		c-14,0-27-7.5-34-19.5c-5.2-9.1-6.7-19.6-4-29.7c2.7-10.1,9.2-18.6,18.2-23.8C137,45.6,143.8,43.7,150.6,43.7z"/>
	<path class="st7" d="M252.9,16.2c21.6,0,39.2,17.5,39.2,39.1c0,10.5-4,20.3-11.4,27.7c-7.4,7.4-17.2,11.5-27.7,11.5
		c-21.6,0-39.2-17.5-39.2-39.1C213.8,33.8,231.3,16.2,252.9,16.2L252.9,16.2z"/>
	<path class="st8" d="M355.2,43.4c6.8,0,13.6,1.8,19.5,5.2c18.7,10.8,25.2,34.7,14.4,53.5c-7,12.1-19.9,19.6-33.9,19.6
		c-6.8,0-13.6-1.8-19.6-5.2C317,105.7,310.6,81.7,321.3,63C328.3,50.9,341.3,43.4,355.2,43.4z"/>
	<path class="st9" d="M430.1,118.1c14,0,27,7.5,34,19.5c10.8,18.7,4.4,42.7-14.2,53.5c-5.9,3.4-12.7,5.3-19.5,5.3
		c-14,0-27-7.5-34-19.5c-10.8-18.7-4.4-42.7,14.2-53.5C416.6,119.9,423.3,118.1,430.1,118.1z"/>
	<path class="st10" d="M457.8,220.3c21.6,0,39.2,17.5,39.2,39.1c0,21.6-17.5,39.2-39.1,39.2c-10.5,0-20.3-4-27.7-11.4
		c-7.4-7.4-11.5-17.2-11.5-27.7C418.7,238,436.2,220.4,457.8,220.3L457.8,220.3z"/>
	<path class="st11" d="M430.6,322.6c6.8,0,13.6,1.8,19.5,5.2c18.7,10.8,25.2,34.7,14.4,53.5c-7,12.1-20,19.6-33.9,19.6
		c-6.8,0-13.6-1.8-19.5-5.2c-9.1-5.2-15.6-13.6-18.3-23.7c-2.7-10.1-1.4-20.7,3.9-29.7C403.6,330.2,416.6,322.7,430.6,322.6z"/>
	<path class="st12" d="M355.8,397.6c14,0,27,7.5,34,19.5c10.8,18.7,4.4,42.7-14.2,53.5c-5.9,3.5-12.7,5.3-19.5,5.3
		c-14,0-27-7.5-34-19.5c-5.2-9-6.7-19.6-4-29.7c2.7-10.1,9.2-18.6,18.2-23.8C342.2,399.5,348.9,397.7,355.8,397.6z"/>
</g>
<g class="st0">
	<path class="st1" d="M95.7,328.1c5.9,3.4,10.8,8.4,14.3,14.3c5.2,9.1,6.6,19.6,3.9,29.7c-2.7,10.1-9.2,18.5-18.3,23.7
		c-12.1,7-27.1,6.9-39.2-0.1c-5.9-3.4-10.8-8.4-14.3-14.3c-10.8-18.7-4.3-42.7,14.4-53.5C68.6,321,83.6,321.1,95.7,328.1z"/>
	<path class="st2" d="M170.4,403c18.7,10.8,25.1,34.8,14.3,53.5c-10.8,18.7-34.8,25.1-53.5,14.3c-18.7-10.8-25.1-34.8-14.3-53.5
		C127.8,398.6,151.8,392.2,170.4,403z"/>
	<path class="st3" d="M68.4,225.7c12.1,7,19.6,20,19.6,34c0,10.5-4.1,20.3-11.5,27.7c-7.4,7.4-17.2,11.5-27.7,11.4
		c-6.9,0-13.6-1.8-19.5-5.2c-12.1-7-19.6-20-19.6-34c0-10.5,4.1-20.3,11.5-27.7c7.4-7.4,17.2-11.4,27.7-11.4
		C55.7,220.5,62.4,222.3,68.4,225.7z"/>
	<path class="st4" d="M95.9,123.5c18.7,10.8,25.1,34.8,14.2,53.5c-10.8,18.7-34.8,25.1-53.5,14.3c-18.7-10.8-25.1-34.8-14.3-53.5
		C53.2,119.1,77.2,112.7,95.9,123.5L95.9,123.5z"/>
	<path class="st5" d="M170.9,48.7c5.9,3.4,10.8,8.4,14.3,14.3c5.2,9.1,6.6,19.6,3.9,29.7c-2.7,10.1-9.2,18.5-18.3,23.8
		c-12.1,7-27.1,6.9-39.2-0.1c-5.9-3.4-10.9-8.4-14.3-14.3c-10.8-18.7-4.3-42.7,14.4-53.5C143.8,41.7,158.8,41.7,170.9,48.7z"/>
	<path class="st6" d="M273.1,21.4c12.1,7,19.6,20,19.6,34c0,21.6-17.6,39.1-39.2,39.1c-6.9,0-13.6-1.8-19.5-5.2
		c-12.1-7-19.6-20-19.6-34c0-10.5,4.1-20.3,11.5-27.7c7.4-7.4,17.2-11.4,27.7-11.4C260.4,16.2,267.2,18,273.1,21.4z"/>
	<path class="st7" d="M375.4,48.9c18.7,10.8,25.1,34.8,14.3,53.5c-5.2,9-13.7,15.5-23.8,18.2c-10.1,2.7-20.7,1.3-29.7-3.9
		c-18.7-10.8-25.1-34.8-14.3-53.5C332.7,44.5,356.7,38.1,375.4,48.9L375.4,48.9z"/>
	<path class="st8" d="M450.2,123.9c5.9,3.4,10.8,8.4,14.3,14.3c10.8,18.7,4.3,42.7-14.4,53.5c-12.1,7-27.1,6.9-39.2-0.1
		c-5.9-3.4-10.9-8.4-14.3-14.3c-10.8-18.7-4.3-42.7,14.4-53.5C423.1,116.9,438.1,116.9,450.2,123.9z"/>
	<path class="st9" d="M477.4,226.2c12.1,7,19.6,20,19.6,34c0,21.6-17.6,39.1-39.2,39.1c-6.9,0-13.6-1.8-19.5-5.2
		c-12.1-7-19.6-20-19.6-34c0-21.6,17.6-39.1,39.2-39.1C464.8,220.9,471.5,222.7,477.4,226.2z"/>
	<path class="st10" d="M449.9,328.4c18.7,10.8,25.1,34.8,14.3,53.5c-10.8,18.7-34.8,25.1-53.5,14.3c-9.1-5.2-15.5-13.7-18.2-23.8
		c-2.7-10.1-1.3-20.7,3.9-29.7C407.3,324,431.3,317.6,449.9,328.4L449.9,328.4z"/>
	<path class="st11" d="M375,403.2c5.9,3.4,10.8,8.4,14.3,14.3c10.8,18.7,4.3,42.7-14.4,53.5c-12.1,7-27.1,6.9-39.2-0.1
		c-5.9-3.4-10.8-8.4-14.3-14.3c-5.2-9.1-6.6-19.6-3.9-29.7c2.7-10.1,9.2-18.5,18.3-23.8C347.9,396.2,362.9,396.2,375,403.2z"/>
	<path class="st12" d="M272.7,430.5c12.1,7,19.6,20,19.6,33.9c0,21.6-17.6,39.1-39.2,39.1c-6.9,0-13.6-1.8-19.5-5.2
		c-12.1-7-19.6-20-19.6-34c0-10.5,4.1-20.3,11.5-27.7c7.4-7.4,17.2-11.4,27.7-11.4C260,425.2,266.7,427.1,272.7,430.5z"/>
</g>
<g class="st0">
	<path class="st1" d="M82.7,240.3c3.4,5.9,5.2,12.7,5.2,19.5c0,10.5-4.1,20.3-11.5,27.7c-7.4,7.4-17.2,11.5-27.7,11.5
		c-13.9,0-26.9-7.5-33.9-19.6c-3.4-5.9-5.2-12.7-5.2-19.5c0-21.6,17.6-39.1,39.1-39.2C62.7,220.7,75.7,228.2,82.7,240.3z"/>
	<path class="st2" d="M110.1,342.5c10.8,18.7,4.4,42.7-14.3,53.5c-18.7,10.8-42.7,4.4-53.5-14.3C31.5,363,37.9,339,56.6,328.2
		C75.3,317.4,99.3,323.9,110.1,342.5z"/>
	<path class="st3" d="M110.1,138c7,12.1,7,27.1,0,39.2c-5.2,9.1-13.7,15.5-23.8,18.2c-10.1,2.7-20.7,1.3-29.7-3.9
		c-6-3.4-10.9-8.4-14.3-14.3c-7-12.1-7-27.1,0-39.2c5.2-9.1,13.7-15.5,23.8-18.3c10.1-2.7,20.7-1.3,29.7,3.9
		C101.7,127.1,106.6,132,110.1,138z"/>
	<path class="st4" d="M184.9,63.1c10.8,18.7,4.3,42.7-14.3,53.5c-18.7,10.8-42.7,4.4-53.5-14.3c-10.8-18.7-4.4-42.7,14.3-53.5
		C150.1,38,174.1,44.4,184.9,63.1L184.9,63.1z"/>
	<path class="st5" d="M287.2,35.8c3.4,5.9,5.2,12.7,5.2,19.5c0,10.5-4.1,20.3-11.5,27.7c-7.4,7.4-17.2,11.5-27.7,11.5
		c-13.9,0-27-7.5-33.9-19.6c-3.4-5.9-5.2-12.7-5.2-19.5c0-21.6,17.6-39.2,39.2-39.2C267.2,16.2,280.2,23.7,287.2,35.8z"/>
	<path class="st6" d="M389.5,63.1c7,12.1,7,27.1,0,39.2c-10.8,18.7-34.8,25.1-53.5,14.3c-5.9-3.4-10.9-8.4-14.3-14.3
		c-7-12.1-7-27.1,0-39.2c5.2-9.1,13.7-15.5,23.8-18.2c10.1-2.7,20.7-1.3,29.7,3.9C381.1,52.2,386,57.2,389.5,63.1z"/>
	<path class="st7" d="M464.3,138c10.8,18.7,4.4,42.7-14.3,53.5c-9.1,5.2-19.6,6.6-29.7,3.9c-10.1-2.7-18.5-9.2-23.8-18.2
		c-10.8-18.7-4.4-42.7,14.3-53.5C429.6,112.9,453.6,119.3,464.3,138L464.3,138z"/>
	<path class="st8" d="M491.8,240.3c3.4,5.9,5.2,12.7,5.2,19.5c0,21.6-17.6,39.2-39.2,39.2c-14,0-27-7.5-33.9-19.6
		c-3.4-5.9-5.2-12.7-5.2-19.6c0-21.6,17.6-39.1,39.1-39.1C471.8,220.7,484.8,228.2,491.8,240.3z"/>
	<path class="st9" d="M464.3,342.5c7,12.1,7,27.1,0,39.2c-10.8,18.7-34.8,25.1-53.5,14.3c-5.9-3.4-10.9-8.4-14.3-14.3
		c-7-12.1-7-27.1,0-39.2c10.8-18.7,34.8-25.1,53.5-14.3C456,331.6,460.9,336.6,464.3,342.5z"/>
	<path class="st10" d="M389.5,417.4c10.8,18.7,4.4,42.7-14.3,53.5c-18.7,10.8-42.7,4.4-53.5-14.3c-5.2-9.1-6.6-19.6-3.9-29.7
		c2.7-10.1,9.2-18.5,18.2-23.8C354.7,392.3,378.7,398.7,389.5,417.4L389.5,417.4z"/>
	<path class="st11" d="M287.2,444.9c3.4,5.9,5.2,12.7,5.2,19.5c0,21.6-17.6,39.2-39.1,39.2c-14,0-27-7.5-33.9-19.6
		c-3.4-5.9-5.2-12.7-5.2-19.5c0-10.5,4.1-20.3,11.5-27.7c7.4-7.4,17.2-11.5,27.7-11.5C267.3,425.2,280.3,432.8,287.2,444.9z"/>
	<path class="st12" d="M184.9,417.4c7,12.1,7,27.1,0,39.2c-10.8,18.7-34.8,25.1-53.5,14.3c-6-3.4-10.9-8.4-14.3-14.3
		c-7-12.1-7-27.1,0-39.2c5.2-9.1,13.7-15.5,23.8-18.3c10.1-2.7,20.7-1.3,29.7,3.9C176.6,406.5,181.5,411.5,184.9,417.4z"/>
</g>
<g class="st0">
	<path class="st1" d="M115.4,157.5c0,6.8-1.8,13.6-5.3,19.5c-5.2,9.1-13.7,15.5-23.8,18.2c-10.1,2.7-20.7,1.3-29.7-4
		c-12.1-7-19.6-20-19.5-34c0-6.8,1.8-13.6,5.3-19.5c10.8-18.7,34.8-25.1,53.5-14.3C108,130.5,115.5,143.5,115.4,157.5z"/>
	<path class="st2" d="M87.9,259.6c0,21.6-17.6,39.1-39.2,39.1c-21.6,0-39.1-17.6-39.1-39.2c0-21.6,17.6-39.1,39.2-39.1
		C70.4,220.5,87.9,238.1,87.9,259.6z"/>
	<path class="st3" d="M190.4,82.6c0,14-7.5,27-19.6,33.9c-9.1,5.2-19.6,6.6-29.7,3.9c-10.1-2.7-18.5-9.2-23.8-18.3
		c-3.4-6-5.2-12.7-5.2-19.5c0-14,7.5-27,19.6-33.9c9.1-5.2,19.6-6.6,29.7-3.9c10.1,2.7,18.5,9.2,23.8,18.3
		C188.6,69,190.4,75.8,190.4,82.6z"/>
	<path class="st4" d="M292.7,55.4c0,21.6-17.6,39.1-39.2,39.1c-21.6,0-39.1-17.6-39.1-39.2c0-21.6,17.6-39.1,39.2-39.1
		C275.2,16.2,292.7,33.8,292.7,55.4L292.7,55.4z"/>
	<path class="st5" d="M394.9,82.9c0,6.8-1.8,13.6-5.3,19.5c-5.2,9-13.7,15.5-23.8,18.2c-10.1,2.7-20.7,1.3-29.7-3.9
		c-12.1-7-19.6-20-19.5-34c0-6.8,1.8-13.6,5.3-19.5c10.8-18.7,34.8-25.1,53.5-14.3C387.5,55.9,395,69,394.9,82.9z"/>
	<path class="st6" d="M469.7,157.8c0,14-7.5,27-19.6,33.9c-18.7,10.8-42.7,4.3-53.5-14.4c-3.4-5.9-5.2-12.7-5.2-19.5
		c0-14,7.5-27,19.6-33.9c9.1-5.2,19.6-6.6,29.7-3.9c10.1,2.7,18.5,9.2,23.8,18.3C467.9,144.2,469.7,151,469.7,157.8z"/>
	<path class="st7" d="M497,260.1c0,21.6-17.6,39.1-39.2,39.1c-10.5,0-20.3-4.1-27.7-11.5c-7.4-7.4-11.5-17.2-11.4-27.7
		c0-21.6,17.6-39.1,39.2-39.1C479.5,221,497,238.6,497,260.1L497,260.1z"/>
	<path class="st8" d="M469.5,362.4c0,6.8-1.8,13.6-5.3,19.5c-10.8,18.7-34.8,25.1-53.5,14.3c-12.1-7-19.6-20-19.5-34
		c0-6.8,1.8-13.6,5.3-19.5c10.8-18.7,34.8-25.1,53.5-14.3C462,335.4,469.5,348.5,469.5,362.4z"/>
	<path class="st9" d="M394.5,437.1c0,14-7.5,27-19.6,33.9c-18.7,10.8-42.7,4.3-53.5-14.4c-3.4-6-5.2-12.7-5.2-19.5
		c0-14,7.5-27,19.6-33.9c18.7-10.8,42.7-4.3,53.5,14.4C392.7,423.5,394.5,430.3,394.5,437.1z"/>
	<path class="st10" d="M292.2,464.4c0,21.6-17.6,39.1-39.2,39.1c-21.6,0-39.1-17.6-39.1-39.2c0-10.5,4.1-20.3,11.5-27.7
		c7.4-7.4,17.2-11.4,27.7-11.4C274.7,425.3,292.2,442.8,292.2,464.4L292.2,464.4z"/>
	<path class="st11" d="M190,437c0,6.8-1.8,13.6-5.3,19.5c-10.8,18.7-34.8,25.1-53.5,14.3c-12.1-7-19.6-20-19.5-34
		c0-6.8,1.8-13.6,5.3-19.5c5.2-9.1,13.7-15.5,23.8-18.2c10.1-2.7,20.7-1.3,29.7,3.9C182.5,410,190,423,190,437z"/>
	<path class="st12" d="M115.2,361.9c0,14-7.5,27-19.6,33.9c-18.7,10.8-42.7,4.3-53.5-14.4c-3.4-6-5.2-12.7-5.2-19.5
		c0-14,7.5-27,19.6-33.9c9.1-5.2,19.6-6.6,29.7-3.9c10.1,2.7,18.5,9.2,23.8,18.3C113.4,348.3,115.2,355.1,115.2,361.9z"/>
</g>
<g class="st0">
	<path class="st1" d="M185.7,102c-3.4,5.9-8.4,10.8-14.4,14.2c-9.1,5.2-19.6,6.5-29.7,3.8c-10.1-2.8-18.5-9.3-23.7-18.4
		c-6.9-12.1-6.8-27.1,0.2-39.2c3.4-5.9,8.4-10.8,14.4-14.2c18.7-10.7,42.7-4.1,53.4,14.6C192.9,74.9,192.8,89.9,185.7,102z"/>
	<path class="st2" d="M110.5,176.4c-10.9,18.6-34.9,24.9-53.6,14.1c-18.6-10.9-24.9-34.9-14.1-53.6c10.9-18.6,34.9-24.9,53.6-14.1
		C115.1,133.8,121.4,157.8,110.5,176.4z"/>
	<path class="st3" d="M288.2,75c-7,12-20.1,19.5-34,19.4c-10.5,0-20.3-4.2-27.6-11.6c-7.4-7.4-11.4-17.3-11.3-27.7
		c0-6.9,1.9-13.6,5.3-19.5c7-12.1,20.1-19.5,34-19.4c10.5,0,20.3,4.2,27.6,11.6c7.4,7.4,11.4,17.3,11.3,27.7
		C293.5,62.4,291.6,69.1,288.2,75z"/>
	<path class="st4" d="M390.3,103c-10.9,18.6-34.9,24.9-53.5,14c-18.6-10.9-24.9-34.9-14.1-53.5c10.9-18.6,34.9-24.9,53.6-14.1
		C394.9,60.3,401.2,84.4,390.3,103L390.3,103z"/>
	<path class="st5" d="M464.7,178.3c-3.4,5.9-8.4,10.8-14.4,14.2c-9.1,5.2-19.6,6.5-29.7,3.8c-10.1-2.8-18.5-9.3-23.7-18.4
		c-6.9-12.1-6.8-27.1,0.2-39.2c3.5-5.9,8.4-10.8,14.4-14.2c18.7-10.7,42.7-4.2,53.4,14.6C471.9,151.2,471.8,166.2,464.7,178.3z"/>
	<path class="st6" d="M491.7,280.6c-7,12.1-20.1,19.5-34,19.4c-21.6-0.1-39.1-17.8-39-39.4c0-6.9,1.9-13.6,5.3-19.5
		c7-12.1,20.1-19.5,34-19.4c10.5,0.1,20.3,4.2,27.6,11.6c7.4,7.4,11.4,17.3,11.3,27.7C497,268,495.1,274.7,491.7,280.6z"/>
	<path class="st7" d="M463.7,382.8c-10.9,18.6-34.9,24.9-53.6,14.1c-9-5.3-15.5-13.7-18.1-23.9c-2.7-10.1-1.2-20.7,4.1-29.7
		c10.9-18.6,34.9-24.9,53.6-14C468.3,340.1,474.6,364.1,463.7,382.8L463.7,382.8z"/>
	<path class="st8" d="M388.5,457.3c-3.4,5.9-8.4,10.8-14.4,14.2c-18.8,10.7-42.7,4.1-53.4-14.6c-6.9-12.1-6.8-27.1,0.2-39.2
		c3.4-5.9,8.4-10.8,14.4-14.2c18.7-10.7,42.7-4.1,53.4,14.6C395.6,430.2,395.5,445.2,388.5,457.3z"/>
	<path class="st9" d="M286.1,484.1c-7,12.1-20.1,19.5-34,19.4c-21.6-0.1-39.1-17.8-39-39.4c0-6.9,1.9-13.6,5.3-19.5
		c7-12.1,20.1-19.5,34-19.4c21.6,0.1,39.1,17.8,38.9,39.3C291.4,471.5,289.5,478.2,286.1,484.1z"/>
	<path class="st10" d="M183.9,456.2c-10.9,18.6-34.9,24.9-53.6,14.1c-18.6-10.9-24.9-34.9-14.1-53.6c5.3-9,13.8-15.5,23.9-18.1
		c10.1-2.7,20.7-1.2,29.7,4.1C188.5,413.5,194.8,437.6,183.9,456.2L183.9,456.2z"/>
	<path class="st11" d="M109.4,381c-3.4,5.9-8.4,10.8-14.4,14.2c-18.7,10.7-42.7,4.1-53.4-14.6c-6.9-12.1-6.8-27.1,0.2-39.2
		c3.4-5.9,8.4-10.8,14.4-14.2c9.1-5.2,19.6-6.5,29.7-3.8c10.1,2.8,18.5,9.3,23.7,18.4C116.6,353.9,116.5,368.9,109.4,381z"/>
	<path class="st12" d="M82.6,278.5c-7,12.1-20.1,19.5-34,19.4c-21.6-0.1-39.1-17.8-39-39.3c0-6.9,1.9-13.6,5.3-19.5
		c7-12.1,20.1-19.5,34-19.4c10.5,0.1,20.3,4.2,27.6,11.6c7.4,7.4,11.4,17.3,11.3,27.7C87.9,265.9,86,272.6,82.6,278.5z"/>
</g>
<g class="st0">
	<path class="st1" d="M273.1,89.3c-5.9,3.4-12.7,5.2-19.6,5.2c-10.5,0-20.3-4.1-27.7-11.5c-7.4-7.4-11.4-17.2-11.4-27.7
		c0-13.9,7.5-26.9,19.7-33.9c5.9-3.4,12.7-5.2,19.6-5.2c21.6,0,39.1,17.6,39.1,39.2C292.7,69.3,285.2,82.3,273.1,89.3z"/>
	<path class="st2" d="M170.8,116.5c-18.7,10.8-42.7,4.3-53.5-14.4c-10.8-18.7-4.3-42.7,14.4-53.5c18.7-10.8,42.7-4.3,53.5,14.4
		C196,81.7,189.5,105.7,170.8,116.5z"/>
	<path class="st3" d="M375.4,116.8c-12.1,7-27.1,6.9-39.2,0c-9.1-5.2-15.5-13.7-18.2-23.8c-2.7-10.1-1.3-20.7,3.9-29.7
		c3.5-6,8.4-10.9,14.3-14.3c12.1-7,27.1-7,39.2,0c9.1,5.2,15.5,13.7,18.2,23.8c2.7,10.1,1.3,20.7-4,29.7
		C386.3,108.4,381.3,113.4,375.4,116.8z"/>
	<path class="st4" d="M450.1,191.8c-18.7,10.8-42.7,4.3-53.4-14.4c-10.8-18.7-4.3-42.7,14.4-53.4c18.7-10.8,42.7-4.3,53.5,14.4
		C475.3,157,468.8,181,450.1,191.8L450.1,191.8z"/>
	<path class="st5" d="M477.3,294.1c-5.9,3.4-12.7,5.2-19.6,5.2c-10.5,0-20.3-4.1-27.7-11.5c-7.4-7.4-11.4-17.2-11.4-27.7
		c0-13.9,7.6-26.9,19.7-33.9c5.9-3.4,12.7-5.2,19.6-5.2c21.6,0,39.1,17.6,39.1,39.2C497,274.1,489.4,287.1,477.3,294.1z"/>
	<path class="st6" d="M449.9,396.3c-12.1,7-27.1,6.9-39.2,0c-18.7-10.8-25.1-34.8-14.3-53.5c3.4-5.9,8.4-10.9,14.3-14.3
		c12.1-7,27.1-7,39.2,0c9,5.2,15.5,13.7,18.2,23.8c2.7,10.1,1.3,20.7-3.9,29.7C460.7,387.9,455.8,392.9,449.9,396.3z"/>
	<path class="st7" d="M374.8,471.1c-18.7,10.8-42.7,4.3-53.5-14.4c-5.2-9.1-6.6-19.6-3.9-29.7c2.7-10.1,9.2-18.5,18.3-23.8
		c18.7-10.8,42.7-4.3,53.5,14.4C400,436.3,393.6,460.3,374.8,471.1L374.8,471.1z"/>
	<path class="st8" d="M272.5,498.4c-5.9,3.4-12.7,5.2-19.5,5.2c-21.6,0-39.1-17.6-39.1-39.2c0-14,7.6-26.9,19.7-33.9
		c5.9-3.4,12.7-5.2,19.6-5.2c21.6,0,39.1,17.6,39.1,39.2C292.1,478.4,284.6,491.4,272.5,498.4z"/>
	<path class="st9" d="M170.3,470.8c-12.1,7-27.1,7-39.2,0c-18.7-10.8-25.1-34.8-14.3-53.5c3.4-5.9,8.4-10.9,14.3-14.3
		c12.1-7,27.1-6.9,39.2,0c18.7,10.8,25.1,34.8,14.3,53.5C181.2,462.4,176.3,467.4,170.3,470.8z"/>
	<path class="st10" d="M95.5,395.8c-18.7,10.8-42.7,4.3-53.5-14.4c-10.8-18.7-4.3-42.7,14.4-53.5c9.1-5.2,19.6-6.6,29.7-3.9
		c10.1,2.7,18.5,9.2,23.7,18.3C120.7,361,114.3,385,95.5,395.8L95.5,395.8z"/>
	<path class="st11" d="M68.2,293.5c-5.9,3.4-12.7,5.2-19.5,5.2c-21.6,0-39.1-17.6-39.1-39.2c0-14,7.6-26.9,19.7-33.9
		c5.9-3.4,12.7-5.2,19.6-5.2c10.5,0,20.3,4.1,27.7,11.5c7.4,7.4,11.4,17.2,11.4,27.7C87.9,273.6,80.4,286.6,68.2,293.5z"/>
	<path class="st12" d="M95.9,191.2c-12.1,7-27.1,7-39.2,0c-18.7-10.8-25.1-34.8-14.3-53.5c3.4-6,8.4-10.9,14.3-14.3
		c12.1-7,27.1-6.9,39.2,0c9.1,5.2,15.5,13.7,18.2,23.8c2.7,10.1,1.3,20.7-4,29.7C106.7,182.9,101.8,187.8,95.9,191.2z"/>
</g>
</svg>
